<svg id="Calque_1" data-name="Calque 1" xmlns="http://www.w3.org/2000/svg" viewBox="0 0 852.3 254.81"><defs><style>.cls-1{fill:#1b5e20;}.cls-2{font-size:198px;fill:#e91e63;font-family:ArialNarrow, Arial;letter-spacing:-0.03em;}</style></defs><path class="cls-1" d="M830.73,549a20,20,0,0,0-6.15,1.78,15.66,15.66,0,0,0-4.52,3.09,15,15,0,0,0-3.28,4.25,15.87,15.87,0,0,0-1,13,16.92,16.92,0,0,0,7.12,8.77,19.71,19.71,0,0,0,5.78,2.33c.53.1-.38.13-6.54.16l-7.16.05,0,17c0,12.46,0,17,.09,17.1s1.74.13,9.6.13c9.35,0,9.49,0,9.38.18s-.14,12.77,0,13-1.15,2.16-6.83,11.27l-6.93,11.1h-4.13v16.47h74.84v-9.43l.23-.14.22-.14-.23-.41c-.22-.4-.22-.48-.22-3.38v-3H887.2l-6.94-11.11c-6.56-10.52-6.92-11.12-6.82-11.38s.14-12.34,0-12.77l-.1-.3h10.52c9.53,0,10.54,0,10.69-.15s.15-.43.13-2.34a19.92,19.92,0,0,1,0-2.19,1.4,1.4,0,0,1,.32.27,3.84,3.84,0,0,0,.89.54,3.44,3.44,0,0,0,1.86.27,3.3,3.3,0,0,0,1.81-.26,3.82,3.82,0,0,0,1.75-1.64,3.71,3.71,0,0,0,.31-1.66l.05-1.12,2.62,0,2.6,0v-.94a4.22,4.22,0,0,1,.05-.93,9.89,9.89,0,0,1,.93.54c2.71,1.71,13.66,8.26,13.71,8.21s.08-32.6,0-32.67-10.74,6.41-13.68,8.26l-.95.59,0-.56,0-.56h-5.24l0-1.58a4.51,4.51,0,0,0-.24-2,3.78,3.78,0,0,0-3.91-2,3.73,3.73,0,0,0-2.41.81,3.64,3.64,0,0,1-.38.29,13.51,13.51,0,0,1,0-1.49,6.43,6.43,0,0,0-.08-1.69c-.11-.19-.19-.19-6.94-.19h-6.83l.9-.22a17.31,17.31,0,0,0,13.17-13.11,20,20,0,0,0,.15-5.63c-1.21-7.77-7.6-13.58-15.88-14.43a18.53,18.53,0,0,0-16,6.54,16.52,16.52,0,0,0,6.22,25.31,15.92,15.92,0,0,0,3.65,1.32l.92.23H836l1.1-.27A17.31,17.31,0,0,0,850,569.91a14.93,14.93,0,0,0,.5-4.09,15.27,15.27,0,0,0-1.79-7.4,17.74,17.74,0,0,0-13.22-9.28A29.1,29.1,0,0,0,830.73,549Zm17.49,88.65c0,4,.07,8.89.07,10.9v3.68H832.76l.2-.31c.11-.16,3.11-5,6.68-10.68l6.62-10.61c.13-.19.22-.2,1-.2h.87Zm19.62,3.68,6.78,10.86-7.71,0h-7.75s0-4.92-.09-10.91L859,630.44l1,0,1,0Z" transform="translate(-107.88 -475.59)"/><text class="cls-2" transform="translate(31.17 194.1)">Allcine</text><path class="cls-1" d="M584.24,659.18l41-58.38a55.21,55.21,0,0,0,6.26-11.21,26.74,26.74,0,0,0,2.21-9.75v-.16q0-9.46-5-14.64t-14.17-5.18q-8.55,0-13.84,5.55t-6.48,15.74v.08H582.89v-.08a47,47,0,0,1,5.51-17.41,29.13,29.13,0,0,1,10.76-11,30,30,0,0,1,15.22-3.79q9.74,0,16.64,3.63a24.34,24.34,0,0,1,10.5,10.56q3.6,6.93,3.59,16.71v.08a33.84,33.84,0,0,1-3,12.72,74.48,74.48,0,0,1-8.28,14.68L597.81,657.8h47.9v10.92H584.24Z" transform="translate(-107.88 -475.59)"/><path class="cls-1" d="M659,659.18l41-58.38a55.21,55.21,0,0,0,6.26-11.21,26.74,26.74,0,0,0,2.21-9.75v-.16q0-9.46-5-14.64t-14.17-5.18q-8.55,0-13.83,5.55t-6.49,15.74v.08H657.6v-.08a47,47,0,0,1,5.51-17.41,29.2,29.2,0,0,1,10.76-11,30,30,0,0,1,15.22-3.79q9.74,0,16.64,3.63a24.34,24.34,0,0,1,10.5,10.56q3.6,6.93,3.6,16.71v.08a34,34,0,0,1-3,12.72,75.07,75.07,0,0,1-8.29,14.68L672.52,657.8h47.91v10.92H659Z" transform="translate(-107.88 -475.59)"/><path class="cls-1" d="M791.62,560.11,763.43,668.72H751.66l28.71-107.63H743.11V583h-10.8V550.16h59.31Z" transform="translate(-107.88 -475.59)"/><path class="cls-1" d="M107.88,600.72V725.85h852.3V475.59H589.63L587,476.93a95.79,95.79,0,0,1-16.64,5.59c-12.25,2.79-23.77,4-39.29,4-6.79,0-9.92-.08-14.65-.44-17-1.33-31.36-4.5-40.61-9l-3.2-1.53H107.88Zm78.44-111.28a15.84,15.84,0,0,1,3.46,1.11c1.27.66,1.33,1.09,1.33,9.08,0,9.28-.06,9.38-4.26,10.34-2,.45-2.73.47-18.51.54-15.51.06-16.58,0-19.11-.39a10.87,10.87,0,0,1-4.06-1.28c-1.27-.79-1.33-1.23-1.33-9.1,0-9.23,0-9.23,4.66-10.25,2.13-.45,2.66-.47,18.91-.47C182.92,489,184.25,489.06,186.32,489.44Zm106.67-.1a16.84,16.84,0,0,1,3.46,1l1.53.7.2,8.38c.2,8.16.14,8.42-1.2,9.32a10.17,10.17,0,0,1-4.26,1.36c-2.59.41-4,.45-18.44.45-17.45,0-18.85-.11-21.71-1.47-1.53-.73-1.53-.75-1.53-9.28,0-8.14.07-8.59,1.33-9.25a16,16,0,0,1,3.46-1.11c2.07-.38,3.4-.42,18.71-.42C287.86,489,291.46,489.08,293,489.34Zm107.2.17c4.86,1,4.73.85,4.73,10.29s0,9.17-4.26,10.19c-1.8.43-2.67.45-19.11.45s-17.31,0-19.05-.45a22.65,22.65,0,0,1-3.19-1c-1.33-.55-1.4-.9-1.6-8.83-.2-9.33-.07-9.61,4.39-10.59,2.47-.53,2.47-.53,19.18-.53C397.53,489,398.06,489,400.19,489.51Zm107.07-.07a15.84,15.84,0,0,1,3.46,1.11c1.27.66,1.34,1.09,1.34,9.08,0,9.28-.07,9.38-4.27,10.34-2,.45-2.53.47-19.37.47-25.44,0-23.64.81-23.64-10.7,0-9.23,0-9.25,4.59-10.23,2.2-.47,2.73-.49,19-.49C503.87,489,505.2,489.06,507.26,489.44Zm107.47.11c4.46,1,4.6,1.26,4.4,10.59-.2,7.93-.27,8.28-1.6,8.83-3.4,1.47-3.4,1.47-21.44,1.54-18.45.06-19.65,0-22.64-1.43l-1.53-.75.2-8.78c.2-8.44.26-8.81,1.53-9.25,3.46-1.26,3.93-1.28,22-1.28C612.27,489,612.27,489,614.73,489.55Zm106.8-.06c4.4,1,4.33.76,4.47,10.12.13,8.15.06,8.51-1.2,9.21a16.17,16.17,0,0,1-3.2,1.17c-1.8.43-2.66.45-19.11.45s-17.31,0-19-.45a22.39,22.39,0,0,1-3.2-1c-1.33-.55-1.4-.9-1.6-8.83-.2-9.31-.06-9.61,4.4-10.59,2.46-.53,2.46-.53,19.37-.53C718.8,489,719.47,489,721.53,489.49Zm106.87,0c4.6,1,4.6,1,4.6,10.23s-.07,9.27-4.26,10.23c-2,.45-2.53.47-19.38.47-25.43,0-23.64.81-23.64-10.7,0-9.23,0-9.25,4.6-10.23,2.19-.47,2.73-.49,19-.49S826.21,489,828.4,489.51Zm106.87-.07a13.19,13.19,0,0,1,3.6,1.37c1.33.89,1.4,1.17,1.2,9.25s-.27,8.36-1.6,8.91c-3.4,1.47-3.4,1.47-21.44,1.54-18.44.06-19.64,0-22.57-1.43-1.53-.73-1.53-.75-1.53-9.23,0-9.11,0-9.13,3.46-10.11a17.68,17.68,0,0,1,2.53-.57c.53-.07,8.46-.13,17.58-.13C932,489,933.21,489,935.27,489.44Zm-10.65,25.39c7.06.41,12.85,1.9,15.32,3.95,1.26,1,1.26,3.09,1.26,81.41v80.36l-1.6,1.05c-2.06,1.34-6,2.6-10,3.19l-3.06.45h-785l-3.07-.45c-4-.59-7.92-1.85-10-3.19l-1.59-1.05V600.19c0-78.32,0-80.39,1.26-81.41,2.33-2,7.79-3.44,14.38-3.88C147.5,514.53,918.63,514.49,924.62,514.83ZM185.52,691c4.19,1,4.26,1.07,4.26,10.23s0,9.23-4.66,10.26c-2.13.44-2.66.47-19,.47s-16.84,0-19-.49c-4.66-1-4.66-1-4.46-10.54.2-8.27.26-8.56,1.6-9.16,2.93-1.28,4.19-1.37,22.57-1.3C182.79,690.57,183.52,690.59,185.52,691Zm106.14-.13c5.06.92,5,.73,5,10.32,0,11.53,1.73,10.77-23.84,10.77-15.78,0-16.31,0-18.44-.49a24.79,24.79,0,0,1-3.6-1.07c-1.33-.6-1.4-.79-1.26-9.23s.2-8.66,1.6-9.3c3.13-1.4,3.86-1.44,21.84-1.44C288.13,690.47,289.33,690.49,291.66,690.91Zm106.53-.06a15.25,15.25,0,0,1,3.8,1.09c1.53.72,1.53.74,1.53,9.27,0,8.14-.07,8.59-1.33,9.25a15.84,15.84,0,0,1-3.46,1.11c-2.07.38-3.4.43-18.51.43-18.52,0-19.71-.09-22.44-1.62-1.47-.84-1.54-.94-1.54-9.15,0-11.43-1.46-10.76,23.64-10.76C393.8,690.47,396.2,690.51,398.19,690.85Zm108.27.19c4.2,1,4.26,1.07,4.26,10.23s0,9.23-4.66,10.26c-2.13.44-2.66.47-18.91.47-15.51,0-16.84,0-18.91-.43a15.84,15.84,0,0,1-3.46-1.11c-1.33-.68-1.33-1-1.2-9.38s.27-8.67,1.6-9.27c2.93-1.28,4.19-1.37,22.57-1.3C503.73,690.57,504.46,690.59,506.46,691Zm106.14-.11c5,1.09,4.73.62,4.86,10.22.13,11.59,2,10.72-22.84,10.8-16.84.07-17,.07-19.24-.42a25,25,0,0,1-3.66-1.09c-1.4-.6-1.4-.79-1.27-9.27.13-9.64-.07-9.15,4.86-10.24,2.13-.44,2.67-.46,18.65-.46S610.47,690.49,612.6,690.93Zm106.54-.08a15.3,15.3,0,0,1,3.79,1.09c1.53.72,1.53.74,1.53,9.27,0,8.14-.06,8.59-1.33,9.25a15.84,15.84,0,0,1-3.46,1.11c-2.06.38-3.4.43-18.51.43-18.51,0-19.71-.09-22.44-1.62-1.47-.81-1.53-.94-1.53-9,0-11.51-1.4-10.87,23.64-10.87C714.74,690.47,717.14,690.51,719.14,690.85Zm107.2,0a14.27,14.27,0,0,1,3.8,1.22c1.46.83,1.53.93,1.53,9.1,0,9.16-.07,9.27-4.26,10.23-2,.45-2.67.47-19,.53-16.05,0-17.11,0-19.17-.38a16.12,16.12,0,0,1-3.47-1.11c-1.26-.66-1.33-1.11-1.33-9.25,0-8.53,0-8.55,1.53-9.27,2.87-1.39,4.2-1.47,22.11-1.47C822.35,690.47,824.28,690.51,826.34,690.87Zm107.2.06c4.93,1.09,4.73.6,4.86,10.24.14,8.48.14,8.67-1.26,9.27a26.86,26.86,0,0,1-3.6,1.09c-2.13.44-2.66.47-18.64.47s-16.51,0-18.64-.49a24.41,24.41,0,0,1-3.6-1.07c-1.4-.6-1.4-.79-1.27-9.27.14-9.64-.06-9.15,4.87-10.24,2.13-.44,2.66-.46,18.64-.46S931.41,690.49,933.54,690.93Z" transform="translate(-107.88 -475.59)"/></svg>